<svg viewBox="0 0 36 36" version="1.1" xmlns="http://www.w3.org/2000/svg">
  <path fill="currentColor"
    d="M18.3783225,6.80710678 L28.5606602,16.9894444 C28.8627063,17.2914906 29.0090099,17.6903027 28.999571,18.0860909 C29.0087635,18.4817936 28.8624521,18.8801886 28.5606602,19.1819805 L18.3783225,29.3643182 C17.7925361,29.9501046 16.8427886,29.9501046 16.2570022,29.3643182 C15.6712157,28.7785317 15.6712157,27.8287843 16.2570022,27.2429978 L23.8278312,19.670767 L7.60883118,19.6714249 C6.78040405,19.6714249 6.10883118,18.9998521 6.10883118,18.1714249 C6.10883118,17.3429978 6.78040405,16.6714249 7.60883118,16.6714249 L23.9998312,16.670767 L16.2570022,8.92842712 C15.6712157,8.34264069 15.6712157,7.39289322 16.2570022,6.80710678 C16.8427886,6.22132034 17.7925361,6.22132034 18.3783225,6.80710678 Z"
    transform="translate(17.554416, 18.085712) rotate(180.000000) translate(-17.554416, -18.085712)"></path>
</svg>