<svg viewBox="0 0 36 36" version="1.1"
  xmlns="http://www.w3.org/2000/svg">
  <path fill="currentColor" d="M18,3 C21.3137085,3 24,5.6862915 24,9 L28,9 L28,30 C28,31.6568542 26.6568542,33 25,33 L11,33 C9.34314575,33 8,31.6568542 8,30 L8,9 L12,9 C12,5.6862915 14.6862915,3 18,3 Z M26,11 L10,11 L10,30 C10,30.5128358 10.3860402,30.9355072 10.8833789,30.9932723 L11,31 L25,31 C25.5522847,31 26,30.5522847 26,30 L26,11 Z M15,16 L15,30 L11,30 L11,16 L15,16 Z M25,26 L25,30 L16,30 L16,26 L25,26 Z M21,14 L21,25 L16,25 L16,14 L21,14 Z M25,22 L25,25 L22,25 L22,22 L25,22 Z M25,17 L25,21 L22,21 L22,17 L25,17 Z M18,5 C16.8954305,5 15.8954305,5.44771525 15.1715729,6.17157288 C14.4477153,6.8954305 14,7.8954305 14,9 L22,9 C22,7.8954305 21.5522847,6.8954305 20.8284271,6.17157288 C20.1045695,5.44771525 19.1045695,5 18,5 Z"></path>
</svg>
