<svg viewBox="0 0 36 36" version="1.1"
  xmlns="http://www.w3.org/2000/svg">
  <path fill="currentColor" d="M10.5,27 C11.8807119,27 13,28.1192881 13,29.5 C13,30.8807119 11.8807119,32 10.5,32 C9.11928813,32 8,30.8807119 8,29.5 C8,28.1192881 9.11928813,27 10.5,27 Z M27.5,27 C28.8807119,27 30,28.1192881 30,29.5 C30,30.8807119 28.8807119,32 27.5,32 C26.1192881,32 25,30.8807119 25,29.5 C25,28.1192881 26.1192881,27 27.5,27 Z M8,6 C8.55228475,6 9,6.44771525 9,7 L8.996,7.063 L9.145,8 L28,8 C28.5522847,8 29,8.44771525 29,9 L29,20 C29,20.0876642 28.9887197,20.1726938 28.9675314,20.2537164 L28.9638496,20.1720204 C29.0119844,20.7222036 28.6049938,21.2072361 28.0548107,21.2553709 L11.474,22.706 L11.719,24.253 L26.9602271,23.7214132 C27.5121754,23.7021387 27.975243,24.1339562 27.9945174,24.6859045 C28.0137919,25.2378528 27.5819744,25.7009204 27.0300261,25.7201949 L11.0397729,26.2785868 C10.5596342,26.2953536 10.1467535,25.970769 10.0347596,25.5226952 C9.92538851,25.3905686 9.84906846,25.22776 9.82022184,25.0456295 L7.12,8 L5,8 C4.44771525,8 4,7.55228475 4,7 C4,6.44771525 4.44771525,6 5,6 L8,6 Z M22.4733629,15.302565 L15.5,15.9126552 L15.848623,19.897434 L22.8219859,19.2873438 L22.4733629,15.302565 Z"></path>
</svg>
