<svg viewBox="0 0 36 36" version="1.1"
  xmlns="http://www.w3.org/2000/svg">
  <path fill="currentColor" d="M27.5190407,8.83629311 L27.5447053,8.85510562 C28.1779397,9.33049645 28.3156761,10.2245494 27.8548832,10.8684843 L17.2558985,25.680036 C16.835283,26.2678252 16.0415796,26.4304352 15.4285238,26.0760676 C15.2587469,25.9920022 15.1031339,25.8718767 14.9736304,25.7170344 C14.966563,25.7085841 14.9595945,25.7000515 14.9527265,25.6914383 L8.01330998,16.9887596 C7.51157609,16.3595383 7.60387177,15.4448617 8.22119506,14.9285592 C8.82019828,14.4275787 9.71191122,14.5070419 10.2128917,15.1060451 C10.2199591,15.1144954 10.2269276,15.123028 10.2337956,15.1316412 L16.0670778,22.4461874 L25.5768322,9.15827307 C26.0242459,8.53303469 26.8938023,8.38887935 27.5190407,8.83629311 Z"></path>
</svg>
