<svg viewBox="0 0 36 36" version="1.1" xmlns="http://www.w3.org/2000/svg">
  <path fill="currentColor"
    d="M18.4919933,4.35266863 C19.008347,4.78208508 19.1368761,5.47296727 18.8509373,6.03075943 C25.0572563,6.47488262 30,11.7456886 30,18.0041219 C30,24.6292624 24.627417,30 18,30 C11.372583,30 6,24.6292624 6,18.0041219 C6,14.5076676 7.50682978,11.2514692 10.0833756,8.9888866 C10.7059799,8.44214933 11.491145,8.515147 11.91035,8.9888866 C12.3295551,9.46262621 12.313677,10.2568142 11.6919005,10.8044927 C9.36796106,12.8514849 8.26283831,15.379922 8.26283831,18.0041219 C8.26283831,23.501338 12.4832959,27.8379149 18,27.8379149 C23.5167041,27.8379149 27.7918192,23.5000801 27.7918192,18 C27.7918192,12.8334622 23.8057678,8.70726739 18.9503932,8.22581679 C19.0729495,8.66622803 18.9658765,9.14813017 18.6388117,9.50711832 L18.5074038,9.63434295 C17.8943811,10.1585114 16.9477771,10.1138105 16.3931046,9.53450075 L14.8962039,7.97111103 L14,7.0350997 L14.8824525,6.08749213 L16.3793532,4.48006905 C16.9255146,3.8935822 17.8713759,3.8365431 18.4919933,4.35266863 Z">
  </path>
</svg>