<svg viewBox="0 0 36 36" version="1.1"
  xmlns="http://www.w3.org/2000/svg">
  <path fill="currentColor" d="M22,4 C23.1045695,4 24,4.8954305 24,6 L25,6 C26.6568542,6 28,7.34314575 28,9 L28,27 C28,28.6568542 26.6568542,30 25,30 L11,30 C9.34314575,30 8,28.6568542 8,27 L8,9 C8,7.34314575 9.34314575,6 11,6 L12,6 C12,4.8954305 12.8954305,4 14,4 L22,4 Z M12,8 L11,8 C10.7238576,8 10.4738576,8.11192881 10.2928932,8.29289322 C10.1119288,8.47385763 10,8.72385763 10,9 L10,27 C10,27.2761424 10.1119288,27.5261424 10.2928932,27.7071068 C10.4738576,27.8880712 10.7238576,28 11,28 L25,28 C25.2761424,28 25.5261424,27.8880712 25.7071068,27.7071068 C25.8880712,27.5261424 26,27.2761424 26,27 L26,9 C26,8.72385763 25.8880712,8.47385763 25.7071068,8.29289322 C25.5261424,8.11192881 25.2761424,8 25,8 L24,8 C24,9.1045695 23.1045695,10 22,10 L14,10 C12.8954305,10 12,9.1045695 12,8 Z M21,19 C23.209139,19 25,20.790861 25,23 C25,25.209139 23.209139,27 21,27 L19,27 L19,25 L21,25 C22.0543618,25 22.9181651,24.1841222 22.9945143,23.1492623 L23,23 C23,21.8954305 22.1045695,21 21,21 L19,21 L19,19 L21,19 Z M17,19 L17,21 L15,21 C13.9456382,21 13.0818349,21.8158778 13.0054857,22.8507377 L13,23 C13,24.1045695 13.8954305,25 15,25 L17,25 L17,27 L15,27 C12.790861,27 11,25.209139 11,23 C11,20.790861 12.790861,19 15,19 L17,19 Z M20,22 C20.5522847,22 21,22.4477153 21,23 C21,23.5522847 20.5522847,24 20,24 L16,24 C15.4477153,24 15,23.5522847 15,23 C15,22.4477153 15.4477153,22 16,22 L20,22 Z M22,6 L14,6 L14,8 L22,8 L22,6 Z"></path>
</svg>
