<svg viewBox="0 0 36 36" version="1.1" xmlns="http://www.w3.org/2000/svg">
  <path fill="currentColor"
    d="M28.25,5 C29.7687831,5 31,6.23121694 31,7.75 L31,24.25 C31,25.7687831 29.7687831,27 28.25,27 L27,27 L27,28.25 C27,29.7687831 25.7687831,31 24.25,31 L7.75,31 C6.23121694,31 5,29.7687831 5,28.25 L5,11.75 C5,10.2312169 6.23121694,9 7.75,9 L9,9 L9,7.75 C9,6.23121694 10.2312169,5 11.75,5 L28.25,5 Z M9,11 L7.9,11 C7.40294373,11 7,11.4029437 7,11.9 L7,28.1 C7,28.5970563 7.40294373,29 7.9,29 L24.1,29 C24.5970563,29 25,28.5970563 25,28.1 L25,27 L11.75,27 C10.2312169,27 9,25.7687831 9,24.25 L9,11 Z M28.1,7 L11.9,7 C11.4029437,7 11,7.40294373 11,7.9 L11,24.1 C11,24.5970563 11.4029437,25 11.9,25 L28.1,25 C28.5970563,25 29,24.5970563 29,24.1 L29,7.9 C29,7.40294373 28.5970563,7 28.1,7 Z M21,10 L21,15 L26,15 L26,17 L21,17 L21,22 L19,22 L19,17 L14,17 L14,15 L19,15 L19,10 L21,10 Z">
  </path>
</svg>