<svg viewBox="0 0 36 36" version="1.1"
  xmlns="http://www.w3.org/2000/svg">
  <path fill="currentColor" d="M27,9 C28.6568542,9 30,10.3431458 30,12 L30,24 C30,25.6568542 28.6568542,27 27,27 L9,27 C7.34314575,27 6,25.6568542 6,24 L6,12 C6,10.3431458 7.34314575,9 9,9 L27,9 Z M27,11 L9,11 C8.72385763,11 8.47385763,11.1119288 8.29289322,11.2928932 C8.11192881,11.4738576 8,11.7238576 8,12 L8,24 C8,24.2761424 8.11192881,24.5261424 8.29289322,24.7071068 C8.47385763,24.8880712 8.72385763,25 9,25 L27,25 C27.2761424,25 27.5261424,24.8880712 27.7071068,24.7071068 C27.8880712,24.5261424 28,24.2761424 28,24 L28,12 C28,11.7238576 27.8880712,11.4738576 27.7071068,11.2928932 C27.5261424,11.1119288 27.2761424,11 27,11 Z M21,12 L20.99997,16.4013726 C21.2941501,16.1461014 21.6357005,16 22,16 C22.5980684,16 23.134824,16.3937664 23.5013283,17.0178914 C23.7653181,16.3852042 24.1157898,16 24.5,16 C25.3284271,16 26,17.790861 26,20 C26,22.209139 25.3284271,24 24.5,24 C23.8699609,24 23.3306459,22.9641704 23.1084722,21.4962907 C22.7919104,21.814591 22.4103901,22 22,22 C21.6357005,22 21.2941501,21.8538986 20.99997,21.5986274 L21,24 L19,24 L19,12 L21,12 Z M12.5,14 C13.3284271,14 14,14.6715729 14,15.5 L14.0001988,16.4680365 C14.2943272,16.1703632 14.6357949,16 15,16 C15.1842156,16 15.3626141,16.0435849 15.532012,16.1251836 C15.8959548,15.4334709 16.4190509,15 17,15 C18.1045695,15 19,16.5670034 19,18.5 C19,20.4329966 18.1045695,22 17,22 C16.8157844,22 16.6373859,21.9564151 16.467988,21.8748164 C16.1040452,22.5665291 15.5809491,23 15,23 C14.3647188,23 13.7986177,22.4816587 13.4322619,21.6734653 C13.1772099,21.87818 12.8528312,22 12.5,22 L11.5,22 C10.6715729,22 10,21.3284271 10,20.5 L10,15.5 C10,14.6715729 10.6715729,14 11.5,14 L12.5,14 Z"></path>
</svg>
