<svg viewBox="0 0 36 36" version="1.1"
  xmlns="http://www.w3.org/2000/svg">
  <path fill="currentColor" d="M27,9 C28.6568542,9 30,10.3431458 30,12 L30,24 C30,25.6568542 28.6568542,27 27,27 L9,27 C7.34314575,27 6,25.6568542 6,24 L6,12 C6,10.3431458 7.34314575,9 9,9 L27,9 Z M27,11 L9,11 C8.72385763,11 8.47385763,11.1119288 8.29289322,11.2928932 C8.11192881,11.4738576 8,11.7238576 8,12 L8,24 C8,24.2761424 8.11192881,24.5261424 8.29289322,24.7071068 C8.47385763,24.8880712 8.72385763,25 9,25 L27,25 C27.2761424,25 27.5261424,24.8880712 27.7071068,24.7071068 C27.8880712,24.5261424 28,24.2761424 28,24 L28,12 C28,11.7238576 27.8880712,11.4738576 27.7071068,11.2928932 C27.5261424,11.1119288 27.2761424,11 27,11 Z M21,12 L21,24 L19,24 L19,12 L21,12 Z"></path>
  <rect fill="currentColor" opacity="0.5" x="10" y="14" width="14" height="8"></rect>
</svg>