<svg viewBox="0 0 36 36" version="1.1"
  xmlns="http://www.w3.org/2000/svg">
  <path fill="currentColor" d="M26,20 C28.7614237,20 31,22.2385763 31,25 C31,27.7614237 28.7614237,30 26,30 C23.2385763,30 21,27.7614237 21,25 C21,22.2385763 23.2385763,20 26,20 Z M27,22 L25,22 L24.9994382,24 L23,24 L23,26 L24.9994382,26 L25,28 L27,28 L26.9994382,26 L29,26 L29,24 L26.9994382,24 L27,22 Z M18,19 C19.6667854,19 21.2294253,19.4261952 22.570341,20.0760525 C21.0162643,21.161015 20,22.9618269 20,25 C20,25.7034099 20.1210435,26.3785487 20.3434375,27.0057231 C19.7834297,27.005467 19.2014841,27.0024086 18.6037994,27.0008633 L17.396256,27.0008633 C12.7069317,27.0129897 8.99643824,27.1182932 8.99643824,24.9993231 C8.99643824,22.7901841 13.0294373,19 18,19 Z M18,9 C20.209139,9 22,11.0147186 22,13.5 C22,15.9852814 20.209139,18 18,18 C15.790861,18 14,15.9852814 14,13.5 C14,11.0147186 15.790861,9 18,9 Z"></path>
</svg>