<svg viewBox="0 0 36 36" version="1.1"
  xmlns="http://www.w3.org/2000/svg">
  <path fill="currentColor" d="M29,21 C30.1045695,21 31,21.8954305 31,23 L31,29 C31,30.1045695 30.1045695,31 29,31 L23,31 C21.8954305,31 21,30.1045695 21,29 L21,23 C21,21.8954305 21.8954305,21 23,21 Z M27,23 L25,23 L24.9994382,25 L23,25 L23,27 L24.9994382,27 L25,29 L27,29 L26.9994382,27 L29,27 L29,25 L26.9994382,25 L27,23 Z M17.990117,19 C19.6745601,19 21.2631772,19.3971981 22.6574684,20.01974 C21.1617073,20.1895552 20,21.4591119 20,23 L20.0007366,27.999304 C19.5475008,27.9982143 19.0832026,27.9961089 18.610125,27.9949351 L17.3701617,27.9949351 C16.8575448,27.9962072 16.3553437,27.9985735 15.8664432,27.9995553 L15.0014101,27.9992917 C10.9430596,27.9857716 7.99643824,27.7598453 7.99643824,25.7448085 C7.99643824,23.2611584 12.4729441,19 17.990117,19 Z M17.996438,8 C20.4817194,8 22.496438,10.2385763 22.496438,13 C22.496438,15.7614237 20.4817194,18 17.996438,18 C15.5111566,18 13.496438,15.7614237 13.496438,13 C13.496438,10.2385763 15.5111566,8 17.996438,8 Z"></path>
</svg>
