<svg viewBox="0 0 40 40" version="1.1"
  xmlns="http://www.w3.org/2000/svg">
  <path d="M29,3 C30.6568542,3 32,4.34314575 32,6 L32,34 C32,35.6568542 30.6568542,37 29,37 L10,37 C8.34314575,37 7,35.6568542 7,34 L7,6 C7,4.34314575 8.34314575,3 10,3 L29,3 Z M27.7536468,4.21784638 L27.5279794,4.22137431 L11.050592,5.08491758 C10.2922412,5.12466107 9.62032819,5.44008058 9.14703545,5.91791668 C8.67374271,6.39575278 8.39907028,7.03600547 8.43520072,7.7254153 L8.59220859,10.7213039 C8.62833902,11.4107137 8.9684314,12.018748 9.48907886,12.4444939 C9.64441015,12.571512 9.81581234,12.6823049 10.0000084,12.774193 L10,33.1515152 C10,33.3858178 10.0708882,33.597939 10.185499,33.7514845 C10.3001098,33.9050301 10.4584432,34 10.6333333,34 L28.3666667,34 C28.5415568,34 28.6998902,33.9050301 28.814501,33.7514845 C28.9291118,33.597939 29,33.3858178 29,33.1515152 L29.0004368,11.9603776 C29.3243679,11.8166557 29.612376,11.6175423 29.8502236,11.3774115 C30.3235164,10.8995754 30.5981888,10.2593227 30.5620584,9.56991287 L30.4050505,6.57402426 C30.36892,5.88461443 30.0288277,5.2765802 29.5081802,4.8508343 C28.9875327,4.4250884 28.2863302,4.18163082 27.5279794,4.22137431 Z M34,7 C34.5522847,7 35,7.44771525 35,8 L35,32 C35,32.5522847 34.5522847,33 34,33 C33.4477153,33 33,32.5522847 33,32 L33,8 C33,7.44771525 33.4477153,7 34,7 Z M5,7 C5.55228475,7 6,7.44771525 6,8 L6,32 C6,32.5522847 5.55228475,33 5,33 C4.44771525,33 4,32.5522847 4,32 L4,8 C4,7.44771525 4.44771525,7 5,7 Z M25,29 C25.5522847,29 26,29.4477153 26,30 C26,30.5522847 25.5522847,31 25,31 L13,31 C12.4477153,31 12,30.5522847 12,30 C12,29.4477153 12.4477153,29 13,29 L25,29 Z M36.5,11 C36.7761424,11 37,11.2238576 37,11.5 L37,28.5 C37,28.7761424 36.7761424,29 36.5,29 C36.2238576,29 36,28.7761424 36,28.5 L36,11.5 C36,11.2238576 36.2238576,11 36.5,11 Z M22,26 C22.5522847,26 23,26.4477153 23,27 C23,27.5522847 22.5522847,28 22,28 L13,28 C12.4477153,28 12,27.5522847 12,27 C12,26.4477153 12.4477153,26 13,26 L22,26 Z M18,23 C18.5522847,23 19,23.4477153 19,24 C19,24.5522847 18.5522847,25 18,25 L13,25 C12.4477153,25 12,24.5522847 12,24 C12,23.4477153 12.4477153,23 13,23 L18,23 Z M24,20 C24.5522847,20 25,20.4477153 25,21 C25,21.5522847 24.5522847,22 24,22 L13,22 C12.4477153,22 12,21.5522847 12,21 C12,20.4477153 12.4477153,20 13,20 L24,20 Z M23,17 C23.5522847,17 24,17.4477153 24,18 C24,18.5522847 23.5522847,19 23,19 L13,19 C12.4477153,19 12,18.5522847 12,18 C12,17.4477153 12.4477153,17 13,17 L23,17 Z M26,14 C26.5522847,14 27,14.4477153 27,15 C27,15.5522847 26.5522847,16 26,16 L13,16 C12.4477153,16 12,15.5522847 12,15 C12,14.4477153 12.4477153,14 13,14 L26,14 Z" fill="#666666"></path>
  <rect fill="currentColor" transform="translate(19.448630, 8.647664) rotate(-3.000000) translate(-19.448630, -8.647664) " x="9.99862953" y="6.14766408" width="18.9" height="5" rx="1"></rect>
</svg>