<svg viewBox="0 0 36 36" version="1.1"
  xmlns="http://www.w3.org/2000/svg">
  <path fill="currentColor" d="M27,23 C28.6568542,23 30,24.3431458 30,26 L30,28 C30,29.6568542 28.6568542,31 27,31 L9,31 C7.34314575,31 6,29.6568542 6,28 L6,26 C6,24.3431458 7.34314575,23 9,23 L27,23 Z M27,25 L9,25 C8.72385763,25 8.47385763,25.1119288 8.29289322,25.2928932 C8.11192881,25.4738576 8,25.7238576 8,26 L8,28 C8,28.2761424 8.11192881,28.5261424 8.29289322,28.7071068 C8.47385763,28.8880712 8.72385763,29 9,29 L27,29 C27.2761424,29 27.5261424,28.8880712 27.7071068,28.7071068 C27.8880712,28.5261424 28,28.2761424 28,28 L28,26 C28,25.7238576 27.8880712,25.4738576 27.7071068,25.2928932 C27.5261424,25.1119288 27.2761424,25 27,25 Z M12,14 L30,14 C31.6568542,14 33,15.3431458 33,17 L33,19 C33,20.6568542 31.6568542,22 30,22 L12,22 C10.3431458,22 9,20.6568542 9,19 L9,17 C9,15.3431458 10.3431458,14 12,14 Z M27,5 C28.6568542,5 30,6.34314575 30,8 L30,10 C30,11.6568542 28.6568542,13 27,13 L9,13 C7.34314575,13 6,11.6568542 6,10 L6,8 C6,6.34314575 7.34314575,5 9,5 L27,5 Z M27,7 L9,7 C8.72385763,7 8.47385763,7.11192881 8.29289322,7.29289322 C8.11192881,7.47385763 8,7.72385763 8,8 L8,10 C8,10.2761424 8.11192881,10.5261424 8.29289322,10.7071068 C8.47385763,10.8880712 8.72385763,11 9,11 L27,11 C27.2761424,11 27.5261424,10.8880712 27.7071068,10.7071068 C27.8880712,10.5261424 28,10.2761424 28,10 L28,8 C28,7.72385763 27.8880712,7.47385763 27.7071068,7.29289322 C27.5261424,7.11192881 27.2761424,7 27,7 Z"></path>
</svg>
