<svg viewBox="0 0 36 36" version="1.1"
  xmlns="http://www.w3.org/2000/svg">
  <path fill="currentColor" opacity="0.5" d="M27,24 C28.6568542,24 30,25.3431458 30,27 L30,29 C30,30.6568542 28.6568542,32 27,32 L9,32 C7.34314575,32 6,30.6568542 6,29 L6,27 C6,25.3431458 7.34314575,24 9,24 L27,24 Z M27,26 L9,26 C8.72385763,26 8.47385763,26.1119288 8.29289322,26.2928932 C8.11192881,26.4738576 8,26.7238576 8,27 L8,29 C8,29.2761424 8.11192881,29.5261424 8.29289322,29.7071068 C8.47385763,29.8880712 8.72385763,30 9,30 L27,30 C27.2761424,30 27.5261424,29.8880712 27.7071068,29.7071068 C27.8880712,29.5261424 28,29.2761424 28,29 L28,27 C28,26.7238576 27.8880712,26.4738576 27.7071068,26.2928932 C27.5261424,26.1119288 27.2761424,26 27,26 Z M27,4 C28.6568542,4 30,5.34314575 30,7 L30,9 C30,10.6568542 28.6568542,12 27,12 L9,12 C7.34314575,12 6,10.6568542 6,9 L6,7 C6,5.34314575 7.34314575,4 9,4 L27,4 Z M27,6 L9,6 C8.72385763,6 8.47385763,6.11192881 8.29289322,6.29289322 C8.11192881,6.47385763 8,6.72385763 8,7 L8,9 C8,9.27614237 8.11192881,9.52614237 8.29289322,9.70710678 C8.47385763,9.88807119 8.72385763,10 9,10 L27,10 C27.2761424,10 27.5261424,9.88807119 27.7071068,9.70710678 C27.8880712,9.52614237 28,9.27614237 28,9 L28,7 C28,6.72385763 27.8880712,6.47385763 27.7071068,6.29289322 C27.5261424,6.11192881 27.2761424,6 27,6 Z"></path>
  <path fill="currentColor" d="M30,14 C31.6568542,14 33,15.3431458 33,17 L33,19 C33,20.6568542 31.6568542,22 30,22 L12,22 C10.3431458,22 9,20.6568542 9,19 L9,17 C9,15.3431458 10.3431458,14 12,14 L30,14 Z M30,16 L12,16 C11.7238576,16 11.4738576,16.1119288 11.2928932,16.2928932 C11.1119288,16.4738576 11,16.7238576 11,17 L11,19 C11,19.2761424 11.1119288,19.5261424 11.2928932,19.7071068 C11.4738576,19.8880712 11.7238576,20 12,20 L30,20 C30.2761424,20 30.5261424,19.8880712 30.7071068,19.7071068 C30.8880712,19.5261424 31,19.2761424 31,19 L31,17 C31,16.7238576 30.8880712,16.4738576 30.7071068,16.2928932 C30.5261424,16.1119288 30.2761424,16 30,16 Z"></path>
</svg>
