<svg viewBox="0 0 36 36" version="1.1"
  xmlns="http://www.w3.org/2000/svg">
  <path fill="currentColor" d="M25.5,4 C26.8807119,4 28,5.11928813 28,6.5 L28,25.5 C28,26.8807119 26.8807119,28 25.5,28 L19,28 L19,33 L17,33 L17,28 L10.5,28 C9.11928813,28 8,26.8807119 8,25.5 L8,6.5 C8,5.11928813 9.11928813,4 10.5,4 L25.5,4 Z M18.7213203,18.3071068 L22.963961,22.5497475 C23.3544853,22.9402718 23.3544853,23.5734367 22.963961,23.963961 C22.5734367,24.3544853 21.9402718,24.3544853 21.5497475,23.963961 L19,21.414 L19,26 L25.5,26 C25.7761424,26 26,25.7761424 26,25.5 L26,6.5 C26,6.22385763 25.7761424,6 25.5,6 L10.5,6 C10.2238576,6 10,6.22385763 10,6.5 L10,25.5 C10,25.7761424 10.2238576,26 10.5,26 L17,26 L17,21.384 L14.4213203,23.963961 C14.0307961,24.3544853 13.3976311,24.3544853 13.0071068,23.963961 C12.6165825,23.5734367 12.6165825,22.9402718 13.0071068,22.5497475 L17.2497475,18.3071068 C17.4299894,18.1268648 17.6619182,18.0298114 17.8978229,18.0159467 L18.0732449,18.0159467 C18.3091496,18.0298114 18.5410784,18.1268648 18.7213203,18.3071068 Z M14,13 L14,15 L12,15 L12,13 L14,13 Z M22,13 C22.5522847,13 23,13.4477153 23,14 C23,14.5522847 22.5522847,15 22,15 L16,15 C15.4477153,15 15,14.5522847 15,14 C15,13.4477153 15.4477153,13 16,13 L22,13 Z M22.3935319,8.87665799 L22.4632884,9.87422204 C22.5018138,10.4251614 22.0864202,10.9030171 21.5354808,10.9415426 L12.5574043,11.5693508 C12.0064649,11.6078763 11.5286092,11.1924827 11.4900838,10.6415432 L11.4203273,9.6439792 C11.3818019,9.09303978 11.7971955,8.61518411 12.3481349,8.57665867 L21.3262114,7.94885041 C21.8771508,7.91032497 22.3550065,8.32571857 22.3935319,8.87665799 Z"></path>
</svg>
