<svg viewBox="0 0 36 36" version="1.1"
  xmlns="http://www.w3.org/2000/svg">
  <path fill="currentColor" opacity="0.5" d="M7.5,16 L28.5,16 C29.3284271,16 30,16.6715729 30,17.5 C30,18.3284271 29.3284271,19 28.5,19 L7.5,19 C6.67157288,19 6,18.3284271 6,17.5 C6,16.6715729 6.67157288,16 7.5,16 Z M7.5,8 L28.5,8 C29.3284271,8 30,8.67157288 30,9.5 C30,10.3284271 29.3284271,11 28.5,11 L7.5,11 C6.67157288,11 6,10.3284271 6,9.5 C6,8.67157288 6.67157288,8 7.5,8 Z M7.5,24 L28.5,24 C29.3284271,24 30,24.6715729 30,25.5 C30,26.3284271 29.3284271,27 28.5,27 L7.5,27 C6.67157288,27 6,26.3284271 6,25.5 C6,24.6715729 6.67157288,24 7.5,24 Z"></path>
  <path fill="currentColor" d="M11.7852767,14 L12.2147233,14 C12.7181977,14 12.9881898,14.0696192 13.2326343,14.2003495 C13.4770787,14.3310798 13.6689202,14.5229213 13.7996505,14.7673657 C13.9303808,15.0118102 14,15.2818023 14,15.7852767 L14,19.2147233 C14,19.7181977 13.9303808,19.9881898 13.7996505,20.2326343 C13.6689202,20.4770787 13.4770787,20.6689202 13.2326343,20.7996505 C12.9881898,20.9303808 12.7181977,21 12.2147233,21 L11.7852767,21 C11.2818023,21 11.0118102,20.9303808 10.7673657,20.7996505 C10.5229213,20.6689202 10.3310798,20.4770787 10.2003495,20.2326343 C10.0696192,19.9881898 10,19.7181977 10,19.2147233 L10,15.7852767 C10,15.2818023 10.0696192,15.0118102 10.2003495,14.7673657 C10.3310798,14.5229213 10.5229213,14.3310798 10.7673657,14.2003495 C11.0118102,14.0696192 11.2818023,14 11.7852767,14 Z M23.7852767,6 L24.2147233,6 C24.7181977,6 24.9881898,6.06961921 25.2326343,6.20034953 C25.4770787,6.33107985 25.6689202,6.52292128 25.7996505,6.76736572 C25.9303808,7.01181017 26,7.28180229 26,7.78527668 L26,11.2147233 C26,11.7181977 25.9303808,11.9881898 25.7996505,12.2326343 C25.6689202,12.4770787 25.4770787,12.6689202 25.2326343,12.7996505 C24.9881898,12.9303808 24.7181977,13 24.2147233,13 L23.7852767,13 C23.2818023,13 23.0118102,12.9303808 22.7673657,12.7996505 C22.5229213,12.6689202 22.3310798,12.4770787 22.2003495,12.2326343 C22.0696192,11.9881898 22,11.7181977 22,11.2147233 L22,7.78527668 C22,7.28180229 22.0696192,7.01181017 22.2003495,6.76736572 C22.3310798,6.52292128 22.5229213,6.33107985 22.7673657,6.20034953 C23.0118102,6.06961921 23.2818023,6 23.7852767,6 Z M17.7852767,22 L18.2147233,22 C18.7181977,22 18.9881898,22.0696192 19.2326343,22.2003495 C19.4770787,22.3310798 19.6689202,22.5229213 19.7996505,22.7673657 C19.9303808,23.0118102 20,23.2818023 20,23.7852767 L20,27.2147233 C20,27.7181977 19.9303808,27.9881898 19.7996505,28.2326343 C19.6689202,28.4770787 19.4770787,28.6689202 19.2326343,28.7996505 C18.9881898,28.9303808 18.7181977,29 18.2147233,29 L17.7852767,29 C17.2818023,29 17.0118102,28.9303808 16.7673657,28.7996505 C16.5229213,28.6689202 16.3310798,28.4770787 16.2003495,28.2326343 C16.0696192,27.9881898 16,27.7181977 16,27.2147233 L16,23.7852767 C16,23.2818023 16.0696192,23.0118102 16.2003495,22.7673657 C16.3310798,22.5229213 16.5229213,22.3310798 16.7673657,22.2003495 C17.0118102,22.0696192 17.2818023,22 17.7852767,22 Z"></path>
</svg>
