<svg viewBox="0 0 36 36" version="1.1"
  xmlns="http://www.w3.org/2000/svg">
  <path fill="currentColor" d="M22.963961,8.54974747 C23.3544853,8.94027176 23.3544853,9.57343674 22.963961,9.96396103 C22.5734367,10.3544853 21.9402718,10.3544853 21.5497475,9.96396103 L18.999,7.413 L18.999,11.999 L25,12 C26.6568542,12 28,13.3431458 28,15 L28,27 C28,28.6568542 26.6568542,30 25,30 L11,30 C9.34314575,30 8,28.6568542 8,27 L8,15 C8,13.3431458 9.34314575,12 11,12 L16.999,11.999 L16.999,7.385 L14.4213203,9.96396103 C14.0307961,10.3544853 13.3976311,10.3544853 13.0071068,9.96396103 C12.6165825,9.57343674 12.6165825,8.94027176 13.0071068,8.54974747 L17.2497475,4.30710678 C17.3704312,4.18642302 17.5142871,4.10303417 17.6669933,4.05694024 C17.7716138,4.01992873 17.8834796,4 18,4 C18.2819154,4 18.5365839,4.11665768 18.7183656,4.30433303 L22.963961,8.54974747 Z M16.999,13.999 L11,14 C10.7238576,14 10.4738576,14.1119288 10.2928932,14.2928932 C10.1119288,14.4738576 10,14.7238576 10,15 L10,27 C10,27.2761424 10.1119288,27.5261424 10.2928932,27.7071068 C10.4738576,27.8880712 10.7238576,28 11,28 L25,28 C25.2761424,28 25.5261424,27.8880712 25.7071068,27.7071068 C25.8880712,27.5261424 26,27.2761424 26,27 L26,15 C26,14.7238576 25.8880712,14.4738576 25.7071068,14.2928932 C25.5261424,14.1119288 25.2761424,14 25,14 L18.999,13.999 L19,20 C19,20.5522847 18.5522847,21 18,21 C17.4477153,21 17,20.5522847 17,20 L16.999,13.999 Z"></path>
</svg>
