<svg viewBox="0 0 40 40" version="1.1"
  xmlns="http://www.w3.org/2000/svg"
  xmlns:xlink="http://www.w3.org/1999/xlink">
  <path fill="#666666" d="M15,3 C19.418278,3 23,6.581722 23,11 L27,11 L27,34 C27,35.6568542 25.6568542,37 24,37 L6,37 C4.34314575,37 3,35.6568542 3,34 L3,11 L7,11 C7,6.581722 10.581722,3 15,3 Z M37,6.99993973 L37,21 L38,35 L28,34.999 L28,31.999 L34.4613955,32 L34,24.0565552 L34,10.0024539 L28,10.002 L23.9451047,10.0003032 C23.8270895,8.93239026 23.5222287,7.92078663 23.0639371,6.99890697 L37,6.99993973 Z M24,14 L6,14 L6,33 C6,33.5522847 6.44771525,34 7,34 L23,34 C23.5522847,34 24,33.5522847 24,33 L24,14 Z M15,5 C13.3431458,5 11.8431458,5.67157288 10.7573593,6.75735931 C9.67157288,7.84314575 9,9.34314575 9,11 L21,11 C21,9.34314575 20.3284271,7.84314575 19.2426407,6.75735931 C18.1568542,5.67157288 16.6568542,5 15,5 Z M8,19 L12,19 L12,32 L8,32 Z M32,24 L32,30 L28,30 L28,24 L32,24 Z M22,22 L22,27 L19,27 L19,22 L22,22 Z"></path>
  <path fill="currentColor" d="M13,17 L18,17 L18,27 L13,27 Z M13,28 L22,28 L22,32 L13,32 Z M28,14 L32,14 L32,23 L28,23 Z" id="path-xx4fl_mv3s-1"></path>
</svg>