<svg viewBox="0 0 36 36" version="1.1"
  xmlns="http://www.w3.org/2000/svg">
  <path fill="currentColor" d="M22.9710678,10.6 C23.5233526,10.6 23.9710678,11.0477153 23.9710678,11.6 L23.9702136,24.214 L26.5497475,21.636039 C26.9402718,21.2455147 27.5734367,21.2455147 27.963961,21.636039 C28.3544853,22.0265633 28.3544853,22.6597282 27.963961,23.0502525 L23.7213203,27.2928932 C23.6027683,27.4114452 23.4618556,27.4940082 23.3121583,27.5405823 C23.2051855,27.5790366 23.0905748,27.6 22.9710678,27.6 C22.6891524,27.6 22.4344839,27.4833423 22.2527023,27.295667 L18.0071068,23.0502525 C17.6165825,22.6597282 17.6165825,22.0265633 18.0071068,21.636039 C18.3976311,21.2455147 19.0307961,21.2455147 19.4213203,21.636039 L21.9702136,24.185 L21.9710678,11.6 C21.9710678,11.0477153 22.4187831,10.6 22.9710678,10.6 Z M13,8 C13.2804721,8 13.5339757,8.11546629 13.715568,8.30145623 L17.963961,12.5497475 C18.3544853,12.9402718 18.3544853,13.5734367 17.963961,13.963961 C17.5734367,14.3544853 16.9402718,14.3544853 16.5497475,13.963961 L13.9992136,11.414 L14,24 C14,24.5522847 13.5522847,25 13,25 C12.4477153,25 12,24.5522847 12,24 L11.9992136,11.385 L9.42132034,13.963961 C9.03079605,14.3544853 8.39763107,14.3544853 8.00710678,13.963961 C7.61658249,13.5734367 7.61658249,12.9402718 8.00710678,12.5497475 L12.2497475,8.30710678 C12.3717216,8.18513268 12.5173659,8.10125527 12.6718944,8.05547454 C12.77442,8.01943209 12.8849407,8 13,8 Z"></path>
</svg>
