<svg viewBox="0 0 36 36" version="1.1"
  xmlns="http://www.w3.org/2000/svg">
  <path fill="currentColor" d="M27,6 C28.6568542,6 30,7.34314575 30,9 L30,27 C30,28.6568542 28.6568542,30 27,30 L9,30 C7.34314575,30 6,28.6568542 6,27 L6,9 C6,7.34314575 7.34314575,6 9,6 L27,6 Z M26,8 L10,8 C8.8954305,8 8,8.8954305 8,10 L8,26 C8,27.1045695 8.8954305,28 10,28 L26,28 C27.1045695,28 28,27.1045695 28,26 L28,10 C28,8.8954305 27.1045695,8 26,8 Z M24.6313203,12.0144149 C25.3015319,12.5013521 25.4501051,13.4394066 24.9631679,14.1096182 L18.0110409,23.6798341 C17.9204632,23.842572 17.797854,23.9910516 17.6442469,24.1154402 C17.0004381,24.6367863 16.0558934,24.5375106 15.5345473,23.8937018 L11.1293046,18.4536801 C10.6079585,17.8098713 10.7072341,16.8653267 11.3510429,16.3439806 C11.9948517,15.8226345 12.9393964,15.9219101 13.4607425,16.5657189 L16.628,20.477 L22.5361169,12.3462625 C23.0230542,11.6760509 23.9611087,11.5274776 24.6313203,12.0144149 Z"></path>
</svg>
