<svg viewBox="0 0 36 36" version="1.1"
  xmlns="http://www.w3.org/2000/svg">
  <path fill="currentColor" d="M27,6 C28.6568542,6 30,7.34314575 30,9 L30,27 C30,28.6568542 28.6568542,30 27,30 L9,30 C7.34314575,30 6,28.6568542 6,27 L6,9 C6,7.34314575 7.34314575,6 9,6 L27,6 Z M15,11.0806248 C14.4477153,11.0806248 14,11.5283401 14,12.0806248 L14,23.9193752 C14,24.1464466 14.0772808,24.3667572 14.2191312,24.5440702 C14.5641407,24.9753321 15.1934331,25.0452535 15.624695,24.700244 L23.023914,18.7808688 C23.0815787,18.734737 23.133956,18.6823598 23.1800878,18.624695 C23.5250973,18.1934331 23.4551759,17.5641407 23.023914,17.2191312 L15.624695,11.299756 C15.447382,11.1579056 15.2270715,11.0806248 15,11.0806248 Z"></path>
</svg>
