<svg viewBox="0 0 36 36" version="1.1"
  xmlns="http://www.w3.org/2000/svg">
  <path fill="currentColor" d="M27,6 C28.6568542,6 30,7.34314575 30,9 L30,27 C30,28.6568542 28.6568542,30 27,30 L9,30 C7.34314575,30 6,28.6568542 6,27 L6,9 C6,7.34314575 7.34314575,6 9,6 L27,6 Z M24.6313203,12.0144149 C23.9611087,11.5274776 23.0230542,11.6760509 22.5361169,12.3462625 L16.628,20.477 L13.4607425,16.5657189 C12.9719805,15.9621482 12.1112667,15.837171 11.4751046,16.2534825 L11.3510429,16.3439806 C10.7072341,16.8653267 10.6079585,17.8098713 11.1293046,18.4536801 L15.5345473,23.8937018 C16.0558934,24.5375106 17.0004381,24.6367863 17.6442469,24.1154402 C17.797854,23.9910516 17.9204632,23.842572 18.0110409,23.6798341 L24.9631679,14.1096182 C25.4501051,13.4394066 25.3015319,12.5013521 24.6313203,12.0144149 Z"></path>
</svg>