<svg viewBox="0 0 36 36" version="1.1"
  xmlns="http://www.w3.org/2000/svg">
  <path fill="currentColor" d="M27,6 C28.6568542,6 30,7.34314575 30,9 L30,27 C30,28.6568542 28.6568542,30 27,30 L9,30 C7.34314575,30 6,28.6568542 6,27 L6,9 C6,7.34314575 7.34314575,6 9,6 L27,6 Z M26,8 L10,8 C8.8954305,8 8,8.8954305 8,10 L8,26 C8,27.1045695 8.8954305,28 10,28 L26,28 C27.1045695,28 28,27.1045695 28,26 L28,10 C28,8.8954305 27.1045695,8 26,8 Z M15,11.0806248 C15.2270715,11.0806248 15.447382,11.1579056 15.624695,11.299756 L23.023914,17.2191312 C23.4551759,17.5641407 23.5250973,18.1934331 23.1800878,18.624695 C23.133956,18.6823598 23.0815787,18.734737 23.023914,18.7808688 L15.624695,24.700244 C15.1934331,25.0452535 14.5641407,24.9753321 14.2191312,24.5440702 C14.0772808,24.3667572 14,24.1464466 14,23.9193752 L14,12.0806248 C14,11.5283401 14.4477153,11.0806248 15,11.0806248 Z"></path>
</svg>
