<svg viewBox="0 0 36 36" version="1.1"
  xmlns="http://www.w3.org/2000/svg">
  <path fill="currentColor" d="M27,6 C28.6568542,6 30,7.34314575 30,9 L30,27 C30,28.6568542 28.6568542,30 27,30 L9,30 C7.34314575,30 6,28.6568542 6,27 L6,9 C6,7.34314575 7.34314575,6 9,6 L27,6 Z M27,11 L9,11 C8.44771525,11 8,11.4477153 8,12 L8,27 C8,27.5522847 8.44771525,28 9,28 L27,28 C27.5522847,28 28,27.5522847 28,27 L28,12 C28,11.4477153 27.5522847,11 27,11 Z M20.5,23 C21.0522847,23 21.5,23.4477153 21.5,24 L21.5,25 C21.5,25.5522847 21.0522847,26 20.5,26 L19.5,26 C18.9477153,26 18.5,25.5522847 18.5,25 L18.5,24 C18.5,23.4477153 18.9477153,23 19.5,23 L20.5,23 Z M16.5,23 C17.0522847,23 17.5,23.4477153 17.5,24 L17.5,25 C17.5,25.5522847 17.0522847,26 16.5,26 L15.5,26 C14.9477153,26 14.5,25.5522847 14.5,25 L14.5,24 C14.5,23.4477153 14.9477153,23 15.5,23 L16.5,23 Z M12.5,23 C13.0522847,23 13.5,23.4477153 13.5,24 L13.5,25 C13.5,25.5522847 13.0522847,26 12.5,26 L11.5,26 C10.9477153,26 10.5,25.5522847 10.5,25 L10.5,24 C10.5,23.4477153 10.9477153,23 11.5,23 L12.5,23 Z M24.5,19 C25.0522847,19 25.5,19.4477153 25.5,20 L25.5,21 C25.5,21.5522847 25.0522847,22 24.5,22 L23.5,22 C22.9477153,22 22.5,21.5522847 22.5,21 L22.5,20 C22.5,19.4477153 22.9477153,19 23.5,19 L24.5,19 Z M20.5,19 C21.0522847,19 21.5,19.4477153 21.5,20 L21.5,21 C21.5,21.5522847 21.0522847,22 20.5,22 L19.5,22 C18.9477153,22 18.5,21.5522847 18.5,21 L18.5,20 C18.5,19.4477153 18.9477153,19 19.5,19 L20.5,19 Z M16.5,19 C17.0522847,19 17.5,19.4477153 17.5,20 L17.5,21 C17.5,21.5522847 17.0522847,22 16.5,22 L15.5,22 C14.9477153,22 14.5,21.5522847 14.5,21 L14.5,20 C14.5,19.4477153 14.9477153,19 15.5,19 L16.5,19 Z M12.5,19 C13.0522847,19 13.5,19.4477153 13.5,20 L13.5,21 C13.5,21.5522847 13.0522847,22 12.5,22 L11.5,22 C10.9477153,22 10.5,21.5522847 10.5,21 L10.5,20 C10.5,19.4477153 10.9477153,19 11.5,19 L12.5,19 Z M24.5,15 C25.0522847,15 25.5,15.4477153 25.5,16 L25.5,17 C25.5,17.5522847 25.0522847,18 24.5,18 L23.5,18 C22.9477153,18 22.5,17.5522847 22.5,17 L22.5,16 C22.5,15.4477153 22.9477153,15 23.5,15 L24.5,15 Z M20.5,15 C21.0522847,15 21.5,15.4477153 21.5,16 L21.5,17 C21.5,17.5522847 21.0522847,18 20.5,18 L19.5,18 C18.9477153,18 18.5,17.5522847 18.5,17 L18.5,16 C18.5,15.4477153 18.9477153,15 19.5,15 L20.5,15 Z M16.5,15 C17.0522847,15 17.5,15.4477153 17.5,16 L17.5,17 C17.5,17.5522847 17.0522847,18 16.5,18 L15.5,18 C14.9477153,18 14.5,17.5522847 14.5,17 L14.5,16 C14.5,15.4477153 14.9477153,15 15.5,15 L16.5,15 Z"></path>
</svg>