<svg viewBox="0 0 36 36" version="1.1"
  xmlns="http://www.w3.org/2000/svg">
  <path fill="currentColor" d="M25.5,6 C26.8807119,6 28,7.11928813 28,8.5 L28,27.5 C28,28.8807119 26.8807119,30 25.5,30 L10.5,30 C9.11928813,30 8,28.8807119 8,27.5 L8,8.5 C8,7.11928813 9.11928813,6 10.5,6 L25.5,6 Z M25.5,8 L10.5,8 C10.2238576,8 10,8.22385763 10,8.5 L10,27.5 C10,27.7761424 10.2238576,28 10.5,28 L25.5,28 C25.7761424,28 26,27.7761424 26,27.5 L26,8.5 C26,8.22385763 25.7761424,8 25.5,8 Z M14,24 L14,26 L12,26 L12,24 L14,24 Z M20,24 C20.5522847,24 21,24.4477153 21,25 C21,25.5522847 20.5522847,26 20,26 L16,26 C15.4477153,26 15,25.5522847 15,25 C15,24.4477153 15.4477153,24 16,24 L20,24 Z M14,20 L14,22 L12,22 L12,20 L14,20 Z M23,20 C23.5522847,20 24,20.4477153 24,21 C24,21.5522847 23.5522847,22 23,22 L16,22 C15.4477153,22 15,21.5522847 15,21 C15,20.4477153 15.4477153,20 16,20 L23,20 Z M14,16 L14,18 L12,18 L12,16 L14,16 Z M22,16 C22.5522847,16 23,16.4477153 23,17 C23,17.5522847 22.5522847,18 22,18 L16,18 C15.4477153,18 15,17.5522847 15,17 C15,16.4477153 15.4477153,16 16,16 L22,16 Z M22.3935319,10.876658 L22.4632884,11.874222 C22.5018138,12.4251614 22.0864202,12.9030171 21.5354808,12.9415426 L12.5574043,13.5693508 C12.0064649,13.6078763 11.5286092,13.1924827 11.4900838,12.6415432 L11.4203273,11.6439792 C11.3818019,11.0930398 11.7971955,10.6151841 12.3481349,10.5766587 L21.3262114,9.94885041 C21.8771508,9.91032497 22.3550065,10.3257186 22.3935319,10.876658 Z"></path>
</svg>