<svg viewBox="0 0 36 36" version="1.1"
  xmlns="http://www.w3.org/2000/svg">
  <path fill="currentColor" d="M27,6 C28.6568542,6 30,7.34314575 30,9 L30,27 C30,28.6568542 28.6568542,30 27,30 L9,30 C7.34314575,30 6,28.6568542 6,27 L6,9 C6,7.34314575 7.34314575,6 9,6 L27,6 Z M27,8 L9,8 C8.44771525,8 8,8.44771525 8,9 L8,27 C8,27.5522847 8.44771525,28 9,28 L27,28 C27.5522847,28 28,27.5522847 28,27 L28,9 C28,8.44771525 27.5522847,8 27,8 Z M19.0935947,8.89389053 C19.462541,9.21350275 19.5839862,9.70692925 19.4427438,10.1399063 C23.1602648,10.8288249 26,14.1351218 26,18.0090314 C26,22.4257918 22.4195083,26.0062835 18.0027479,26.0062835 C13.5859876,26.0062835 10.0054959,22.4257918 10.0054959,18.0090314 C10.0054959,15.6780619 11.009704,13.5072629 12.7268112,11.9988746 C13.1417382,11.634383 13.7735817,11.675269 14.1380732,12.090196 C14.5025647,12.505123 14.4616787,13.1369665 14.0467517,13.501458 C12.7574673,14.6340266 12.0054959,16.2595648 12.0054959,18.0090314 C12.0054959,21.3212223 14.6905571,24.0062835 18.0027479,24.0062835 C21.3149388,24.0062835 24,21.3212223 24,18.0090314 C24,15.2509502 22.0632236,12.8652043 19.4768285,12.1941782 C19.5464627,12.5403688 19.45567,12.909581 19.2110494,13.1892653 L19.105923,13.2952858 C18.6155049,13.7320928 17.8582217,13.6948421 17.4144837,13.212084 L16.2169631,11.9092592 L15.5,11.1292498 L16.205962,10.3395768 L17.4034825,9.00005754 C17.8404117,8.5113185 18.5971007,8.46378591 19.0935947,8.89389053 Z"></path>
</svg>