<svg viewBox="0 0 36 36" version="1.1"
  xmlns="http://www.w3.org/2000/svg">
  <path fill="currentColor" d="M18,20 C19.1045695,20 20,19.1045695 20,18 C20,16.8954305 19.1045695,16 18,16 C16.8954305,16 16,16.8954305 16,18 C16,19.1045695 16.8954305,20 18,20 Z M25,20 C26.1045695,20 27,19.1045695 27,18 C27,16.8954305 26.1045695,16 25,16 C23.8954305,16 23,16.8954305 23,18 C23,19.1045695 23.8954305,20 25,20 Z M11,20 C12.1045695,20 13,19.1045695 13,18 C13,16.8954305 12.1045695,16 11,16 C9.8954305,16 9,16.8954305 9,18 C9,19.1045695 9.8954305,20 11,20 Z"></path>
</svg>