<svg viewBox="0 0 36 36" version="1.1"
  xmlns="http://www.w3.org/2000/svg">
  <path fill="currentColor" d="M23.990117,22 C29.50729,22 33.9964382,26.2611584 33.9964382,28.7448085 C33.9964382,30.7598453 31.0414952,30.9857716 26.9800043,30.9992917 L26.1143942,30.9995553 C25.6252203,30.9985735 25.1228285,30.9962072 24.610125,30.9949351 L23.3701617,30.9949351 C22.8575448,30.9962072 22.3553437,30.9985735 21.8664432,30.9995553 L21.0014101,30.9992917 C16.9430596,30.9857716 13.9964382,30.7598453 13.9964382,28.7448085 C13.9964382,26.2611584 18.4729441,22 23.990117,22 Z M11,19 C14.1806354,19 16.9820351,20.5519472 18.5871822,22.2485029 C17.9949579,22.5291843 17.4390883,22.8467824 16.9252963,23.1892976 C15.216692,24.3283246 14.0216068,25.7336823 13.4273122,27.0060217 C12.8425701,27.005782 12.231875,27.0024872 11.6037994,27.0008633 L10.396256,27.0008633 C5.70693171,27.0129897 1.99643824,27.1182932 1.99643824,24.9993231 C1.99643824,22.7901841 6.02943725,19 11,19 Z M23.996438,11 C26.4817194,11 28.496438,13.2385763 28.496438,16 C28.496438,18.7614237 26.4817194,21 23.996438,21 C21.5111566,21 19.496438,18.7614237 19.496438,16 C19.496438,13.2385763 21.5111566,11 23.996438,11 Z M17.9913813,13 C18.3986695,13 18.7989547,13.0282211 19.1900613,13.0809728 C18.749651,13.9421724 18.496438,14.9376194 18.496438,16 C18.496438,17.640921 19.1005273,19.1221589 20.0630179,20.196012 L19.8995007,19.9999493 C19.2877992,19.9994483 18.6487107,19.9954053 17.9913813,19.9954053 L17.6983956,19.9956502 C17.6122291,19.9957874 17.5264092,19.9959755 17.4409569,19.996197 C16.306275,19.2410651 14.9558517,18.6218705 13.4712711,18.2822834 C13.877436,18.0297889 14.2491177,17.713903 14.5758364,17.3463444 C15.4508279,16.361979 16,15.0041776 16,13.5 C16,13.4079963 15.9979454,13.3165401 15.9938874,13.2256836 C16.6319754,13.0809669 17.3015089,13 17.9913813,13 Z M11,9 C13.209139,9 15,11.0147186 15,13.5 C15,15.9852814 13.209139,18 11,18 C8.790861,18 7,15.9852814 7,13.5 C7,11.0147186 8.790861,9 11,9 Z M17.9964382,5 C19.6532925,5 20.9964382,6.56700338 20.9964382,8.5 C20.9964382,10.4329966 19.6532925,12 17.9964382,12 C16.339584,12 14.9964382,10.4329966 14.9964382,8.5 C14.9964382,6.56700338 16.339584,5 17.9964382,5 Z"></path>
</svg>
