<svg viewBox="0 0 36 36" version="1.1"
  xmlns="http://www.w3.org/2000/svg">
  <path fill="currentColor" d="M22.990117,19 C28.50729,19 32.9964382,23.2611584 32.9964382,25.7448085 C32.9964382,27.7598453 30.0414952,27.9857716 25.9800043,27.9992917 L25.1143942,27.9995553 C24.6252203,27.9985735 24.1228285,27.9962072 23.610125,27.9949351 L22.3701617,27.9949351 C21.8575448,27.9962072 21.3553437,27.9985735 20.8664432,27.9995553 L20.0014101,27.9992917 C15.9430596,27.9857716 12.9964382,27.7598453 12.9964382,25.7448085 C12.9964382,23.2611584 17.4729441,19 22.990117,19 Z M12,18 C13.9487566,18 15.7551504,18.5825918 17.231266,19.4240851 C16.7709813,19.6591722 16.3347756,19.9163216 15.9252963,20.1892976 C13.3999809,21.8727783 11.9964382,24.1380534 11.9964382,25.6957603 C11.9964382,25.8006277 12.0014117,25.9025116 12.0112231,26.0015104 L11.396256,26.0008633 C6.70693171,26.0129897 2.99643824,26.1182932 2.99643824,23.9993231 C2.99643824,21.7901841 7.02943725,18 12,18 Z M22.996438,8 C25.4817194,8 27.496438,10.2385763 27.496438,13 C27.496438,15.7614237 25.4817194,18 22.996438,18 C20.5111566,18 18.496438,15.7614237 18.496438,13 C18.496438,10.2385763 20.5111566,8 22.996438,8 Z M12,8 C14.209139,8 16,10.0147186 16,12.5 C16,14.9852814 14.209139,17 12,17 C9.790861,17 8,14.9852814 8,12.5 C8,10.0147186 9.790861,8 12,8 Z" id="Two-Persons"></path>
</svg>
