<svg viewBox="0 0 40 40" version="1.1"
  xmlns="http://www.w3.org/2000/svg">
  <path d="M29,3 C30.6568542,3 32,4.34314575 32,6 L32.0004682,18.6420748 C30.9597822,18.5014863 29.994513,18.6439167 28.7772405,18.9677263 L29,18.91 L29,6.84848485 C29,6.66104275 28.9570193,6.48779676 28.8842348,6.34738072 L28.8242641,6.24851546 C28.7156854,6.0949699 28.5656854,6 28.4,6 L11.6,6 C11.4343146,6 11.2843146,6.0949699 11.1757359,6.24851546 C11.0671573,6.40206102 11,6.61418223 11,6.84848485 L11,33.1515152 C11,33.3858178 11.0671573,33.597939 11.1757359,33.7514845 C11.2843146,33.9050301 11.4343146,34 11.6,34 L28.4,34 C28.5656854,34 28.7156854,33.9050301 28.8242641,33.7514845 C28.9328427,33.597939 29,33.3858178 29,33.1515152 L29.0006633,32.3618575 C30.1093457,31.7105938 31.2339702,30.9437609 32.3736527,30.059891 L32,30.344 L32,34 C32,35.6568542 30.6568542,37 29,37 L11,37 C9.34314575,37 8,35.6568542 8,34 L8,6 C8,4.34314575 9.34314575,3 11,3 L29,3 Z M22,30 C22.5522847,30 23,30.4477153 23,31 C23,31.5522847 22.5522847,32 22,32 L14,32 C13.4477153,32 13,31.5522847 13,31 C13,30.4477153 13.4477153,30 14,30 L22,30 Z M20.9150881,27.0006978 C21.0564296,27.2975287 21.2072347,27.5914984 21.3648849,27.8822387 C21.5441163,28.2127795 21.7733342,28.5853458 22.0530795,28.999595 L14,29 C13.4477153,29 13,28.5522847 13,28 C13,27.4477153 13.4477153,27 14,27 Z M19.9220902,24.000231 C20.0328562,24.6760801 20.2285315,25.3441505 20.4824069,26.0006883 L14,26 C13.4477153,26 13,25.5522847 13,25 C13,24.4477153 13.4477153,24 14,24 Z M19.5,22 C19.6370484,22 19.7612186,22.0551384 19.851537,22.1444416 C19.8304074,22.3531177 19.8206705,22.5606885 19.8201971,22.7677541 L19.8221436,22.8824063 C19.735132,22.9557812 19.6227299,23 19.5,23 L13.5,23 C13.2238576,23 13,22.7761424 13,22.5 C13,22.2238576 13.2238576,22 13.5,22 L19.5,22 Z M24,17 C24.2848019,17 24.5417961,17.1190588 24.7239263,17.3101201 C23.552267,17.2793629 22.658744,17.5965902 21.9626819,18.0777302 C21.5950947,18.331818 21.2763524,18.6427307 21.0046233,18.9996617 L14,19 C13.4477153,19 13,18.5522847 13,18 C13,17.4477153 13.4477153,17 14,17 L24,17 Z M26,14 C26.5522847,14 27,14.4477153 27,15 C27,15.5522847 26.5522847,16 26,16 L14,16 C13.4477153,16 13,15.5522847 13,15 C13,14.4477153 13.4477153,14 14,14 L26,14 Z M23,11 C23.5522847,11 24,11.4477153 24,12 C24,12.5522847 23.5522847,13 23,13 L14,13 C13.4477153,13 13,12.5522847 13,12 C13,11.4477153 13.4477153,11 14,11 L23,11 Z M19.5,9 C19.7761424,9 20,9.22385763 20,9.5 C20,9.77614237 19.7761424,10 19.5,10 L13.5,10 C13.2238576,10 13,9.77614237 13,9.5 C13,9.22385763 13.2238576,9 13.5,9 L19.5,9 Z" id="Current-Icon" fill="#666666"></path>
  <g id="Heart" transform="translate(19.820179, 17.307960)">
    <path fill="currentColor" d="M6.58239263,14.6199969 C8.20799191,13.8475089 9.87059768,12.8022059 11.5702099,11.4840878 C14.1196283,9.50691066 14.5385084,9.14387591 14.9376716,7.09035924 C15.3368348,5.03684258 14.6402388,3.43617024 12.2336081,2.96836863 C10.6291877,2.6565009 9.37792893,2.95810568 8.47983175,3.87318298 C8.1826909,2.71253187 7.27481277,1.99123339 5.75619737,1.70928753 C3.47827427,1.28636873 2.05253857,2.67849762 1.6953052,4.51630396 C1.33807184,6.35411031 2.05226736,8.1443959 2.95514203,9.80948822 C3.55705848,10.9195498 4.76614201,12.5230527 6.58239263,14.6199969 Z"></path>
  </g>
</svg>
