<svg viewBox="0 0 40 40" version="1.1"
  xmlns="http://www.w3.org/2000/svg">
  <path fill="#666666" d="M29,3 C30.6568542,3 32,4.34314575 32,6 L32,34 C32,35.6568542 30.6568542,37 29,37 L11,37 C9.34314575,37 8,35.6568542 8,34 L8,6 C8,4.34314575 9.34314575,3 11,3 L29,3 Z M28.4,6 L11.6,6 C11.4343146,6 11.2843146,6.0949699 11.1757359,6.24851546 C11.0671573,6.40206102 11,6.61418223 11,6.84848485 L11,33.1515152 C11,33.3858178 11.0671573,33.597939 11.1757359,33.7514845 C11.2843146,33.9050301 11.4343146,34 11.6,34 L28.4,34 C28.5656854,34 28.7156854,33.9050301 28.8242641,33.7514845 C28.9328427,33.597939 29,33.3858178 29,33.1515152 L29,6.84848485 C29,6.61418223 28.9328427,6.40206102 28.8242641,6.24851546 C28.7156854,6.0949699 28.5656854,6 28.4,6 Z M22,30 C22.5522847,30 23,30.4477153 23,31 C23,31.5522847 22.5522847,32 22,32 L14,32 C13.4477153,32 13,31.5522847 13,31 C13,30.4477153 13.4477153,30 14,30 L22,30 Z M23,27 C23.5522847,27 24,27.4477153 24,28 C24,28.5522847 23.5522847,29 23,29 L14,29 C13.4477153,29 13,28.5522847 13,28 C13,27.4477153 13.4477153,27 14,27 L23,27 Z M25,24 C25.5522847,24 26,24.4477153 26,25 C26,25.5522847 25.5522847,26 25,26 L14,26 C13.4477153,26 13,25.5522847 13,25 C13,24.4477153 13.4477153,24 14,24 L25,24 Z M19.5,22 C19.7761424,22 20,22.2238576 20,22.5 C20,22.7761424 19.7761424,23 19.5,23 L13.5,23 C13.2238576,23 13,22.7761424 13,22.5 C13,22.2238576 13.2238576,22 13.5,22 L19.5,22 Z M24,17 C24.5522847,17 25,17.4477153 25,18 C25,18.5522847 24.5522847,19 24,19 L14,19 C13.4477153,19 13,18.5522847 13,18 C13,17.4477153 13.4477153,17 14,17 L24,17 Z M26,14 C26.5522847,14 27,14.4477153 27,15 C27,15.5522847 26.5522847,16 26,16 L14,16 C13.4477153,16 13,15.5522847 13,15 C13,14.4477153 13.4477153,14 14,14 L26,14 Z M23,11 C23.5522847,11 24,11.4477153 24,12 C24,12.5522847 23.5522847,13 23,13 L14,13 C13.4477153,13 13,12.5522847 13,12 C13,11.4477153 13.4477153,11 14,11 L23,11 Z M19.5,9 C19.7761424,9 20,9.22385763 20,9.5 C20,9.77614237 19.7761424,10 19.5,10 L13.5,10 C13.2238576,10 13,9.77614237 13,9.5 C13,9.22385763 13.2238576,9 13.5,9 L19.5,9 Z"></path>
  <g id="Heart" transform="translate(19.820179, 17.307960)">
    <path fill="#FFFFFF" d="M2.14250295,0.769770375 C3.05259966,0.140682888 4.30026361,-0.208189337 6.06233937,0.134323494 C7.3490313,0.38443107 8.29571832,0.921903163 8.95706162,1.65976644 C10.3131493,1.29903034 11.3564806,1.16340031 12.5397501,1.3934046 C14.2309329,1.72213724 15.2868019,2.49436794 15.9188719,3.45790848 C16.6003592,4.49678182 16.8147485,5.84170494 16.5125307,7.39648084 C16.0345623,9.855415 15.64664,10.3530556 12.5534738,12.7519312 C10.753957,14.1475292 8.99198204,15.2513393 7.27102829,16.06914 C6.91011538,16.2406465 6.53831023,16.4056074 6.15553189,16.5636189 C5.9018208,16.2801149 5.63983225,15.9824059 5.3696181,15.6704314 C3.44809526,13.4519455 2.18120187,11.7481123 1.54470596,10.5742788 C0.456017507,8.56650653 -0.306239747,6.40473054 0.120341171,4.21016197 C0.403151279,2.75523009 1.06168706,1.51686432 2.14250295,0.769770375 Z"></path>
    <path fill="currentColor" d="M6.58239263,14.6199969 C8.20799191,13.8475089 9.87059768,12.8022059 11.5702099,11.4840878 C14.1196283,9.50691066 14.5385084,9.14387591 14.9376716,7.09035924 C15.3368348,5.03684258 14.6402388,3.43617024 12.2336081,2.96836863 C10.6291877,2.6565009 9.37792893,2.95810568 8.47983175,3.87318298 C8.1826909,2.71253187 7.27481277,1.99123339 5.75619737,1.70928753 C3.47827427,1.28636873 2.05253857,2.67849762 1.6953052,4.51630396 C1.33807184,6.35411031 2.05226736,8.1443959 2.95514203,9.80948822 C3.55705848,10.9195498 4.76614201,12.5230527 6.58239263,14.6199969 Z"></path>
  </g>
</svg>